# xmcd CD database file generated by Grip 2.96
# 
# Track frame offsets:
#       150
#       23322
#       41076
#       64982
#       86834
#       114152
#       127666
#       144034
#       160417
#       165533
#       187801
#       199193
#       203665
#       217850
#       235432
#       256332
#       271338
#       295350
#       314955
#       319674
#       335387
#       346827
# 
# Disc length: 4819 seconds
# 
# Revision: 0
# Processed by: cddbd v1.4PL0 Copyright (c) Steve Scherf et al.
# Submitted via: Grip 2.96
# 
DISCID=3912d116
DTITLE=Ritchie Blackmore - Blackmore's Night
DYEAR=1900
DGENRE=
TTITLE0=The Clock Ticks On
TTITLE1=Play Minstrel Play
TTITLE2=Spanish Night (I Remember It Well) 
TTITLE3=Shadow Of The Moon
TTITLE4=Ocean Gipsy
TTITLE5=Avalon
TTITLE6=Greensleeves
TTITLE7=Beyond The Sunset
TTITLE8=Possum Goes To Pargue
TTITLE9=Wish You Were Here
TTITLE10=Catherine Howard's Fate
TTITLE11=Mond Tanz
TTITLE12=Now And Then
TTITLE13=Magical World
TTITLE14=Morning Star
TTITLE15=Past Time With Good Company
TTITLE16=No Second Chance
TTITLE17=Under The Violet Moon
TTITLE18=Memmingem
TTITLE19=Castle And Dreams
TTITLE20=Ministrell Hall
TTITLE21=Self Portrait
EXTD=
EXTT0=
EXTT1=
EXTT2=
EXTT3=
EXTT4=
EXTT5=
EXTT6=
EXTT7=
EXTT8=
EXTT9=
EXTT10=
EXTT11=
EXTT12=
EXTT13=
EXTT14=
EXTT15=
EXTT16=
EXTT17=
EXTT18=
EXTT19=
EXTT20=
EXTT21=
PLAYORDER=
